<?xml version="1.0" encoding="UTF-8" standalone="no"?>
<!DOCTYPE svg PUBLIC "-//W3C//DTD SVG 1.1//EN" "http://www.w3.org/Graphics/SVG/1.1/DTD/svg11.dtd">
<svg width="100%" height="100%" viewBox="0 0 256 256" version="1.1" xmlns="http://www.w3.org/2000/svg" xmlns:xlink="http://www.w3.org/1999/xlink" xml:space="preserve" xmlns:serif="http://www.serif.com/" style="fill-rule:evenodd;clip-rule:evenodd;stroke-linejoin:round;stroke-miterlimit:2;">
    <rect x="0" y="0" width="256" height="256" style="fill:rgb(255, 228, 140);"/>
    <g transform="matrix(1,0,0,1,20,-8)">
        <circle cx="40.5" cy="33.5" r="15.5" style="fill:rgb(229,136,155);"/>
    </g>
    <g transform="matrix(1,0,0,1,-5.18994,96.8694)">
        <circle cx="40.5" cy="33.5" r="15.5" style="fill:rgb(229,136,155);"/>
    </g>
    <g transform="matrix(1,0,0,1,77.9474,198.919)">
        <circle cx="40.5" cy="33.5" r="15.5" style="fill:rgb(229,136,155);"/>
    </g>
    <g transform="matrix(1,0,0,1,-13.2695,187.655)">
        <circle cx="40.5" cy="33.5" r="15.5" style="fill:rgb(229,136,155);"/>
    </g>
    <g transform="matrix(1,0,0,1,153.839,74.4414)">
        <circle cx="40.5" cy="33.5" r="15.5" style="fill:rgb(229,136,155);"/>
    </g>
    <g transform="matrix(1,0,0,1,68.8506,42.2207)">
        <circle cx="40.5" cy="33.5" r="15.5" style="fill:rgb(229,136,155);"/>
    </g>
    <g transform="matrix(1,0,0,1,164.707,173.919)">
        <circle cx="40.5" cy="33.5" r="15.5" style="fill:rgb(229,136,155);"/>
    </g>
    <g transform="matrix(1,0,0,1,106.57,121.619)">
        <circle cx="40.5" cy="33.5" r="15.5" style="fill:rgb(229,136,155);"/>
    </g>
    <g transform="matrix(1,0,0,1,175.589,-5.78829)">
        <circle cx="40.5" cy="33.5" r="15.5" style="fill:rgb(229,136,155);"/>
    </g>
</svg>
