<?xml version="1.0" encoding="UTF-8" standalone="no"?>
<!DOCTYPE svg PUBLIC "-//W3C//DTD SVG 1.1//EN" "http://www.w3.org/Graphics/SVG/1.1/DTD/svg11.dtd">
<svg width="100%" height="100%" viewBox="0 0 400 400" version="1.1" xmlns="http://www.w3.org/2000/svg" xmlns:xlink="http://www.w3.org/1999/xlink" xml:space="preserve" xmlns:serif="http://www.serif.com/" style="fill-rule:evenodd;clip-rule:evenodd;stroke-linejoin:round;stroke-miterlimit:2;">
    <g transform="matrix(1.23462,0,0,1.23462,-23.7058,4.80769)">
        <path d="M103.5,110L43.5,110L43.5,190L103.5,190L196.381,280L196.381,20L103.5,110Z" style="fill:white;"/>
    </g>
    <g transform="matrix(1,0,0,1,-14.695,-27.2723)">
        <path d="M246,163C246,163 263,198.751 263,217.084C263,235.418 246,273 246,273C246.369,279.234 249.616,280.03 254.468,277.795C254.468,277.795 286.608,230.885 287.365,217.084C288.442,197.447 254.468,157.255 254.468,157.255C249.026,153.669 246.461,156.126 246,163Z" style="fill:white;"/>
    </g>
    <g transform="matrix(1.33248,0,0,1.33248,-60.6433,-99.5103)">
        <path d="M246,163C246,163 263,198.751 263,217.084C263,235.418 246,273 246,273C246.369,279.234 249.616,280.03 254.468,277.795C254.468,277.795 286.608,230.885 287.365,217.084C288.442,197.447 254.468,157.255 254.468,157.255C249.026,153.669 246.461,156.126 246,163Z" style="fill:white;"/>
    </g>
    <g transform="matrix(1.64873,0,0,1.64873,-88.8407,-168.224)">
        <path d="M246,163C246,163 263,198.751 263,217.084C263,235.418 246,273 246,273C246.369,279.234 249.616,280.03 254.468,277.795C254.468,277.795 286.608,230.885 287.365,217.084C288.442,197.447 254.468,157.255 254.468,157.255C249.026,153.669 246.461,156.126 246,163Z" style="fill:white;"/>
    </g>
</svg>
